STARTFONT 2.1
COMMENT
COMMENT Converted from OpenType font "VCR_OSD_MONO.ttf" by "otf2bdf 3.0".
COMMENT
FONT -FreeType-VCR OSD Mono-Medium-R-Normal--28-280-72-72-P-125-ISO10646-1
SIZE 28 72 72
FONTBOUNDINGBOX 16 25 0 0
STARTPROPERTIES 19
FOUNDRY "FreeType"
FAMILY_NAME "VCR OSD Mono"
WEIGHT_NAME "Medium"
SLANT "R"
SETWIDTH_NAME "Normal"
ADD_STYLE_NAME ""
PIXEL_SIZE 28
POINT_SIZE 280
RESOLUTION_X 72
RESOLUTION_Y 72
SPACING "P"
AVERAGE_WIDTH 125
CHARSET_REGISTRY "ISO10646"
CHARSET_ENCODING "1"
FONT_ASCENT 24
FONT_DESCENT 0
COPYRIGHT "-FreeType-VCR OSD Mono-Medium-R-Normal--28-280-72-72-P-125-ISO10646-1"
_OTF_FONTFILE "VCR_OSD_MONO.ttf"
_OTF_PSNAME "VCROSDMono"
ENDPROPERTIES
CHARS 207
STARTCHAR 0000
ENCODING 0
SWIDTH 0 0
DWIDTH 0 0
BBX 0 0 0 0
BITMAP
ENDCHAR
STARTCHAR 001D
ENCODING 29
SWIDTH 0 0
DWIDTH 0 0
BBX 0 0 0 0
BITMAP
ENDCHAR
STARTCHAR 0020
ENCODING 32
SWIDTH 571 0
DWIDTH 16 0
BBX 0 0 0 0
BITMAP
ENDCHAR
STARTCHAR 0021
ENCODING 33
SWIDTH 571 0
DWIDTH 16 0
BBX 3 20 5 1
BITMAP
E0
E0
E0
E0
E0
E0
E0
E0
E0
E0
E0
E0
E0
E0
00
00
00
E0
E0
E0
ENDCHAR
STARTCHAR 0022
ENCODING 34
SWIDTH 571 0
DWIDTH 16 0
BBX 11 6 3 15
BITMAP
F1E0
F1E0
F1E0
F1E0
2080
2080
ENDCHAR
STARTCHAR 0023
ENCODING 35
SWIDTH 571 0
DWIDTH 16 0
BBX 14 18 1 3
BITMAP
00E0
1CE0
1CE0
1CFC
1FFC
1FFC
FFE0
FCE0
FCE0
1CE0
1CFC
1FFC
1FFC
FFE0
FCE0
FCE0
1CE0
1C00
ENDCHAR
STARTCHAR 0024
ENCODING 36
SWIDTH 571 0
DWIDTH 16 0
BBX 14 20 1 1
BITMAP
0700
1FE0
1FE0
7FF8
F77C
E71C
E71C
F700
7700
7FE0
1FF8
1FF8
077C
E71C
F77C
F77C
7FF8
1FE0
1FE0
0700
ENDCHAR
STARTCHAR 0025
ENCODING 37
SWIDTH 571 0
DWIDTH 16 0
BBX 14 20 1 1
BITMAP
781C
FE1C
FE1C
EE1C
EE3C
EE3C
FEF0
79E0
05C0
03C0
0300
0E00
1EF0
79FC
F9FC
F1DC
E1DC
E1FC
E1FC
E0F0
ENDCHAR
STARTCHAR 0026
ENCODING 38
SWIDTH 571 0
DWIDTH 16 0
BBX 14 23 1 1
BITMAP
0F00
0F00
1FC0
70E0
70E0
70E0
70E0
70E0
70E0
1DC0
1FC0
1FC0
7F00
FF00
E3DC
E3DC
E1FC
E0F0
F0F0
F0F0
7FFC
7FFC
1FDC
ENDCHAR
STARTCHAR 0027
ENCODING 39
SWIDTH 571 0
DWIDTH 16 0
BBX 4 6 5 15
BITMAP
F0
F0
F0
F0
20
20
ENDCHAR
STARTCHAR 0028
ENCODING 40
SWIDTH 571 0
DWIDTH 16 0
BBX 7 23 4 1
BITMAP
0E
0C
1C
70
70
E0
E0
E0
E0
E0
E0
E0
E0
E0
E0
E0
E0
E0
E0
70
1C
1C
0E
ENDCHAR
STARTCHAR 0029
ENCODING 41
SWIDTH 571 0
DWIDTH 16 0
BBX 7 23 5 1
BITMAP
E0
60
70
1C
1C
0E
0E
0E
0E
0E
0E
0E
0E
0E
0E
0E
0E
0E
0E
1C
70
70
E0
ENDCHAR
STARTCHAR 002A
ENCODING 42
SWIDTH 571 0
DWIDTH 16 0
BBX 11 13 3 10
BITMAP
0E00
0E00
8E20
EEE0
EEE0
7F80
1F00
1F00
7F80
EEE0
EEE0
8E20
0E00
ENDCHAR
STARTCHAR 002B
ENCODING 43
SWIDTH 571 0
DWIDTH 16 0
BBX 14 14 1 4
BITMAP
0700
0700
0700
0700
0700
FFFC
FFFC
FFFC
0700
0700
0700
0700
0700
0700
ENDCHAR
STARTCHAR 002C
ENCODING 44
SWIDTH 571 0
DWIDTH 16 0
BBX 6 6 4 1
BITMAP
1C
1C
1C
70
60
E0
ENDCHAR
STARTCHAR 002D
ENCODING 45
SWIDTH 571 0
DWIDTH 16 0
BBX 11 3 3 10
BITMAP
FFE0
FFE0
FFE0
ENDCHAR
STARTCHAR 002E
ENCODING 46
SWIDTH 571 0
DWIDTH 16 0
BBX 3 3 5 1
BITMAP
E0
E0
E0
ENDCHAR
STARTCHAR 002F
ENCODING 47
SWIDTH 571 0
DWIDTH 16 0
BBX 14 20 1 1
BITMAP
001C
001C
001C
001C
003C
003C
00F0
01E0
01C0
03C0
0F00
0E00
7E00
7800
F000
F000
E000
E000
E000
E000
ENDCHAR
STARTCHAR 0030
ENCODING 48
SWIDTH 571 0
DWIDTH 16 0
BBX 14 20 1 1
BITMAP
1FE0
1FE0
7FF0
F03C
E01C
E01C
E0FC
E1FC
E1FC
E3DC
EF1C
FE1C
FE1C
FC1C
E01C
F03C
F03C
7FF0
7FF0
1FE0
ENDCHAR
STARTCHAR 0031
ENCODING 49
SWIDTH 571 0
DWIDTH 16 0
BBX 8 20 4 1
BITMAP
1C
1C
7C
FC
FC
FC
1C
1C
1C
1C
1C
1C
1C
1C
1C
1C
1C
FF
FF
FF
ENDCHAR
STARTCHAR 0032
ENCODING 50
SWIDTH 571 0
DWIDTH 16 0
BBX 14 20 1 1
BITMAP
1FE0
7FF8
7FF8
F03C
E01C
E01C
001C
003C
003C
1FF8
7FE0
F000
F000
E000
E000
E000
E000
FFFC
FFFC
FFFC
ENDCHAR
STARTCHAR 0033
ENCODING 51
SWIDTH 571 0
DWIDTH 16 0
BBX 14 20 1 1
BITMAP
1FE0
1FE0
7FF0
F07C
E01C
E01C
001C
007C
007C
07F0
07F0
007C
007C
001C
E01C
F07C
F07C
7FF0
7FF0
1FE0
ENDCHAR
STARTCHAR 0034
ENCODING 52
SWIDTH 571 0
DWIDTH 16 0
BBX 14 20 1 1
BITMAP
00E0
00E0
01E0
07E0
0FE0
0FE0
1EE0
78E0
F0E0
F0E0
E0E0
FFFC
FFFC
FFFC
00E0
00E0
00E0
00E0
00E0
00E0
ENDCHAR
STARTCHAR 0035
ENCODING 53
SWIDTH 571 0
DWIDTH 16 0
BBX 14 20 1 1
BITMAP
FFFC
FFFC
FFFC
E000
E000
E000
FFE0
FFF0
003C
003C
001C
001C
001C
001C
E01C
F03C
F03C
7FF0
1FE0
1FE0
ENDCHAR
STARTCHAR 0036
ENCODING 54
SWIDTH 571 0
DWIDTH 16 0
BBX 14 20 1 1
BITMAP
1FE0
1FE0
7FF0
F03C
E01C
E01C
E000
E000
E000
FFE0
FFF0
E03C
E03C
E01C
E01C
F03C
F03C
7FF0
7FF0
1FE0
ENDCHAR
STARTCHAR 0037
ENCODING 55
SWIDTH 571 0
DWIDTH 16 0
BBX 14 20 1 1
BITMAP
FFFC
FFFC
FFFC
001C
001C
001C
003C
0078
01F8
01E0
03C0
0380
0380
0380
0380
0380
0380
0380
0380
0380
ENDCHAR
STARTCHAR 0038
ENCODING 56
SWIDTH 571 0
DWIDTH 16 0
BBX 14 20 1 1
BITMAP
1FE0
1FE0
7FF0
F03C
E01C
E01C
E01C
F03C
F03C
7FF0
7FF0
F03C
F03C
E01C
E01C
F03C
F03C
7FF0
7FF0
1FE0
ENDCHAR
STARTCHAR 0039
ENCODING 57
SWIDTH 571 0
DWIDTH 16 0
BBX 14 20 1 1
BITMAP
1FE0
1FE0
7FF0
F03C
E01C
E01C
E01C
E01C
F01C
7FFC
7FFC
1FFC
001C
001C
E01C
F03C
F03C
7FF0
7FF0
1FE0
ENDCHAR
STARTCHAR 003A
ENCODING 58
SWIDTH 571 0
DWIDTH 16 0
BBX 3 14 5 4
BITMAP
E0
E0
E0
00
00
00
00
00
00
00
00
E0
E0
E0
ENDCHAR
STARTCHAR 003B
ENCODING 59
SWIDTH 571 0
DWIDTH 16 0
BBX 5 17 3 1
BITMAP
38
38
38
00
00
00
00
00
00
00
00
38
38
38
70
C0
C0
ENDCHAR
STARTCHAR 003C
ENCODING 60
SWIDTH 571 0
DWIDTH 16 0
BBX 11 21 3 1
BITMAP
00E0
01E0
01E0
03C0
0F00
1E00
1E00
7800
F000
E000
E000
F000
7000
7800
1E00
0F00
03C0
03C0
01E0
00E0
00E0
ENDCHAR
STARTCHAR 003D
ENCODING 61
SWIDTH 571 0
DWIDTH 16 0
BBX 14 9 1 7
BITMAP
FFFC
FFFC
FFFC
0000
0000
0000
FFFC
FFFC
FFFC
ENDCHAR
STARTCHAR 003E
ENCODING 62
SWIDTH 571 0
DWIDTH 16 0
BBX 11 21 3 1
BITMAP
E000
F000
F000
7800
1E00
0F00
0F00
03C0
01E0
00E0
00E0
01E0
01C0
03C0
0F00
1E00
7800
7800
F000
E000
E000
ENDCHAR
STARTCHAR 003F
ENCODING 63
SWIDTH 571 0
DWIDTH 16 0
BBX 14 20 1 1
BITMAP
1FE0
7FF0
7FF0
F07C
E01C
E01C
001C
007C
007C
00F0
01E0
07C0
07C0
0700
0000
0000
0000
0700
0700
0700
ENDCHAR
STARTCHAR 0040
ENCODING 64
SWIDTH 571 0
DWIDTH 16 0
BBX 13 17 2 3
BITMAP
3FC0
7070
7070
C038
8E88
BB88
BB88
BB88
BB88
BB88
BBB8
8F70
C000
C000
7070
3040
3FC0
ENDCHAR
STARTCHAR 0041
ENCODING 65
SWIDTH 571 0
DWIDTH 16 0
BBX 14 20 1 1
BITMAP
0700
0700
0F80
1FE0
78F0
78F0
F07C
E01C
E01C
E01C
E01C
FFFC
FFFC
FFFC
E01C
E01C
E01C
E01C
E01C
E01C
ENDCHAR
STARTCHAR 0042
ENCODING 66
SWIDTH 571 0
DWIDTH 16 0
BBX 14 20 1 1
BITMAP
FFE0
FFE0
FFF0
E03C
E01C
E01C
E01C
E03C
E03C
FFF0
FFF0
E03C
E03C
E01C
E01C
E01C
E03C
FFF0
FFF0
FFE0
ENDCHAR
STARTCHAR 0043
ENCODING 67
SWIDTH 571 0
DWIDTH 16 0
BBX 14 20 1 1
BITMAP
1FE0
1FE0
7FF0
F03C
E01C
E01C
E000
E000
E000
E000
E000
E000
E000
E000
E01C
E01C
F03C
7FF0
7FF0
1FE0
ENDCHAR
STARTCHAR 0044
ENCODING 68
SWIDTH 571 0
DWIDTH 16 0
BBX 14 20 1 1
BITMAP
FFE0
FFE0
FFF0
E03C
E01C
E01C
E01C
E01C
E01C
E01C
E01C
E01C
E01C
E01C
E01C
E01C
E03C
FFF0
FFF0
FFE0
ENDCHAR
STARTCHAR 0045
ENCODING 69
SWIDTH 571 0
DWIDTH 16 0
BBX 14 20 1 1
BITMAP
FFFC
FFFC
FFFC
E000
E000
E000
E000
E000
E000
FFE0
FFE0
FFE0
E000
E000
E000
E000
E000
FFFC
FFFC
FFFC
ENDCHAR
STARTCHAR 0046
ENCODING 70
SWIDTH 571 0
DWIDTH 16 0
BBX 14 20 1 1
BITMAP
FFFC
FFFC
FFFC
E000
E000
E000
E000
E000
E000
FFE0
FFE0
FFE0
E000
E000
E000
E000
E000
E000
E000
E000
ENDCHAR
STARTCHAR 0047
ENCODING 71
SWIDTH 571 0
DWIDTH 16 0
BBX 14 20 1 1
BITMAP
1FE0
1FE0
7FF0
F03C
E01C
E01C
E000
E000
E000
E1FC
E1FC
E1FC
E01C
E01C
E01C
F03C
F03C
7FF0
7FF0
1FE0
ENDCHAR
STARTCHAR 0048
ENCODING 72
SWIDTH 571 0
DWIDTH 16 0
BBX 14 20 1 1
BITMAP
E01C
E01C
E01C
E01C
E01C
E01C
E01C
E01C
E01C
FFFC
FFFC
FFFC
E01C
E01C
E01C
E01C
E01C
E01C
E01C
E01C
ENDCHAR
STARTCHAR 0049
ENCODING 73
SWIDTH 571 0
DWIDTH 16 0
BBX 8 20 4 1
BITMAP
FF
FF
FF
1C
1C
1C
1C
1C
1C
1C
1C
1C
1C
1C
1C
1C
1C
FF
FF
FF
ENDCHAR
STARTCHAR 004A
ENCODING 74
SWIDTH 571 0
DWIDTH 16 0
BBX 14 20 1 1
BITMAP
03FC
03FC
03FC
00E0
00E0
00E0
00E0
00E0
00E0
00E0
00E0
00E0
00E0
00E0
E0E0
F9E0
F9E0
7F80
1F00
1F00
ENDCHAR
STARTCHAR 004B
ENCODING 75
SWIDTH 571 0
DWIDTH 16 0
BBX 14 20 1 1
BITMAP
E01C
E01C
E03C
E0F0
E1E0
E1E0
E3C0
EF00
EE00
FE00
FE00
FE00
EF00
E3C0
E1E0
E0F0
E0F0
E03C
E01C
E01C
ENDCHAR
STARTCHAR 004C
ENCODING 76
SWIDTH 571 0
DWIDTH 16 0
BBX 14 20 1 1
BITMAP
E000
E000
E000
E000
E000
E000
E000
E000
E000
E000
E000
E000
E000
E000
E000
E000
E000
FFFC
FFFC
FFFC
ENDCHAR
STARTCHAR 004D
ENCODING 77
SWIDTH 571 0
DWIDTH 16 0
BBX 14 20 1 1
BITMAP
E01C
E01C
E01C
F07C
F8FC
F8FC
FFFC
EF9C
E71C
E71C
E71C
E71C
E01C
E01C
E01C
E01C
E01C
E01C
E01C
E01C
ENDCHAR
STARTCHAR 004E
ENCODING 78
SWIDTH 571 0
DWIDTH 16 0
BBX 14 20 1 1
BITMAP
E01C
E01C
E01C
E01C
F01C
F01C
FC1C
FE1C
EE1C
EF1C
E3DC
E1DC
E1FC
E0FC
E03C
E03C
E01C
E01C
E01C
E01C
ENDCHAR
STARTCHAR 004F
ENCODING 79
SWIDTH 571 0
DWIDTH 16 0
BBX 14 20 1 1
BITMAP
1FE0
1FE0
7FF0
F03C
E01C
E01C
E01C
E01C
E01C
E01C
E01C
E01C
E01C
E01C
E01C
F03C
F03C
7FF0
7FF0
1FE0
ENDCHAR
STARTCHAR 0050
ENCODING 80
SWIDTH 571 0
DWIDTH 16 0
BBX 14 20 1 1
BITMAP
FFE0
FFF0
FFF0
E03C
E03C
E01C
E01C
E03C
E03C
FFF0
FFE0
FFE0
E000
E000
E000
E000
E000
E000
E000
E000
ENDCHAR
STARTCHAR 0051
ENCODING 81
SWIDTH 571 0
DWIDTH 16 0
BBX 14 20 1 1
BITMAP
1FE0
7FF0
7FF0
F07C
E01C
E01C
E01C
E01C
E01C
E01C
E01C
E71C
E71C
E7DC
E1FC
F0F0
F0F0
7FFC
1F1C
1F1C
ENDCHAR
STARTCHAR 0052
ENCODING 82
SWIDTH 571 0
DWIDTH 16 0
BBX 14 20 1 1
BITMAP
FFE0
FFF0
FFF0
E03C
E03C
E01C
E01C
E03C
E03C
FFF0
FFE0
FFE0
EF00
E3C0
E1E0
E0F0
E0F0
E03C
E01C
E01C
ENDCHAR
STARTCHAR 0053
ENCODING 83
SWIDTH 571 0
DWIDTH 16 0
BBX 14 20 1 1
BITMAP
1FE0
7FF8
7FF8
F03C
E01C
E01C
E000
F000
F000
7FE0
1FF8
003C
003C
001C
E01C
F03C
F03C
7FF8
7FF8
1FE0
ENDCHAR
STARTCHAR 0054
ENCODING 84
SWIDTH 571 0
DWIDTH 16 0
BBX 14 20 1 1
BITMAP
FFFC
FFFC
FFFC
0700
0700
0700
0700
0700
0700
0700
0700
0700
0700
0700
0700
0700
0700
0700
0700
0700
ENDCHAR
STARTCHAR 0055
ENCODING 85
SWIDTH 571 0
DWIDTH 16 0
BBX 14 20 1 1
BITMAP
E01C
E01C
E01C
E01C
E01C
E01C
E01C
E01C
E01C
E01C
E01C
E01C
E01C
E01C
E01C
F03C
F03C
7FF0
1FE0
1FE0
ENDCHAR
STARTCHAR 0056
ENCODING 86
SWIDTH 571 0
DWIDTH 16 0
BBX 14 20 1 1
BITMAP
E01C
E01C
E01C
E01C
E01C
E01C
E01C
E01C
E01C
E01C
E01C
E01C
E01C
F07C
78F0
18E0
1FE0
0F80
0700
0700
ENDCHAR
STARTCHAR 0057
ENCODING 87
SWIDTH 571 0
DWIDTH 16 0
BBX 14 20 1 1
BITMAP
E01C
E01C
E01C
E01C
E01C
E01C
E01C
E01C
E01C
E31C
E31C
E31C
E31C
E31C
E31C
E31C
FFFC
7FF0
7FF0
1CE0
ENDCHAR
STARTCHAR 0058
ENCODING 88
SWIDTH 571 0
DWIDTH 16 0
BBX 14 20 1 1
BITMAP
E01C
E01C
E01C
E01C
F07C
F07C
78F0
1FE0
0F80
0F80
0F80
0F80
7FF0
78F0
F07C
F07C
E01C
E01C
E01C
E01C
ENDCHAR
STARTCHAR 0059
ENCODING 89
SWIDTH 571 0
DWIDTH 16 0
BBX 14 20 1 1
BITMAP
E01C
E01C
E01C
E01C
E01C
E01C
E01C
F07C
7070
78F0
1FE0
0F80
0F80
0700
0700
0700
0700
0700
0700
0700
ENDCHAR
STARTCHAR 005A
ENCODING 90
SWIDTH 571 0
DWIDTH 16 0
BBX 14 20 1 1
BITMAP
FFFC
FFFC
FFFC
001C
003C
003C
00F0
01E0
01C0
03C0
0F00
0E00
7E00
7800
F000
F000
E000
FFFC
FFFC
FFFC
ENDCHAR
STARTCHAR 005B
ENCODING 91
SWIDTH 571 0
DWIDTH 16 0
BBX 8 23 5 1
BITMAP
FF
FF
FF
E0
E0
E0
E0
E0
E0
E0
E0
E0
E0
E0
E0
E0
E0
E0
E0
E0
FF
FF
FF
ENDCHAR
STARTCHAR 005C
ENCODING 92
SWIDTH 571 0
DWIDTH 16 0
BBX 14 20 1 1
BITMAP
E000
E000
E000
E000
F000
F000
7800
1E00
0E00
0F00
03C0
01C0
01F0
00F0
003C
003C
001C
001C
001C
001C
ENDCHAR
STARTCHAR 005D
ENCODING 93
SWIDTH 571 0
DWIDTH 16 0
BBX 9 23 2 1
BITMAP
FF80
FF80
FF80
0380
0380
0380
0380
0380
0380
0380
0380
0380
0380
0380
0380
0380
0380
0380
0380
0380
FF80
FF80
FF80
ENDCHAR
STARTCHAR 005E
ENCODING 94
SWIDTH 571 0
DWIDTH 16 0
BBX 14 7 1 14
BITMAP
0700
0700
0F80
1FE0
78F0
78F0
F03C
ENDCHAR
STARTCHAR 005F
ENCODING 95
SWIDTH 571 0
DWIDTH 16 0
BBX 16 3 0 0
BITMAP
FFFF
FFFF
FFFF
ENDCHAR
STARTCHAR 0060
ENCODING 96
SWIDTH 571 0
DWIDTH 16 0
BBX 7 4 4 17
BITMAP
F0
78
78
0E
ENDCHAR
STARTCHAR 0061
ENCODING 97
SWIDTH 571 0
DWIDTH 16 0
BBX 14 17 1 1
BITMAP
1FE0
1FF0
1FF0
003C
001C
001C
1FDC
7FFC
F03C
F03C
E01C
E01C
E01C
F03C
7FFC
7FFC
1FDC
ENDCHAR
STARTCHAR 0062
ENCODING 98
SWIDTH 571 0
DWIDTH 16 0
BBX 14 20 1 1
BITMAP
E000
E000
E000
E000
E3C0
E3C0
EFE0
FEF0
FC30
FC3C
F01C
F01C
F01C
F01C
FC3C
FEF0
FEF0
EFE0
E3C0
E3C0
ENDCHAR
STARTCHAR 0063
ENCODING 99
SWIDTH 571 0
DWIDTH 16 0
BBX 14 16 1 1
BITMAP
1FE0
1FE0
7FF0
F03C
E01C
E01C
E000
E000
E000
E000
E01C
F03C
F03C
7FF0
7FF0
1FE0
ENDCHAR
STARTCHAR 0064
ENCODING 100
SWIDTH 571 0
DWIDTH 16 0
BBX 14 20 1 1
BITMAP
001C
001C
001C
001C
0F1C
0F1C
1FDC
7BFC
70FC
F0FC
E03C
E03C
E03C
E03C
F0FC
7BFC
7BFC
1FDC
0F1C
0F1C
ENDCHAR
STARTCHAR 0065
ENCODING 101
SWIDTH 571 0
DWIDTH 16 0
BBX 14 16 1 1
BITMAP
1FE0
1FE0
7FF0
F03C
E01C
E01C
FFFC
FFF0
FFF0
E000
E000
E000
F03C
7FF0
7FF0
1FE0
ENDCHAR
STARTCHAR 0066
ENCODING 102
SWIDTH 571 0
DWIDTH 16 0
BBX 11 20 3 1
BITMAP
03E0
03E0
0FE0
0E00
FFE0
FFE0
FFE0
0E00
0E00
0E00
0E00
0E00
0E00
0E00
0E00
0E00
0E00
0E00
0E00
0E00
ENDCHAR
STARTCHAR 0067
ENCODING 103
SWIDTH 571 0
DWIDTH 16 0
BBX 14 17 1 1
BITMAP
1FE0
7FF0
7FF0
F03C
E01C
F03C
F03C
7FFC
1FDC
1FDC
001C
001C
001C
703C
7FF0
7FF0
1FE0
ENDCHAR
STARTCHAR 0068
ENCODING 104
SWIDTH 571 0
DWIDTH 16 0
BBX 14 20 1 1
BITMAP
E000
E000
E000
E000
E3C0
E3C0
EFE0
FEF0
FC30
FC3C
F01C
E01C
E01C
E01C
E01C
E01C
E01C
E01C
E01C
E01C
ENDCHAR
STARTCHAR 0069
ENCODING 105
SWIDTH 571 0
DWIDTH 16 0
BBX 9 18 4 1
BITMAP
1C00
1C00
1C00
0000
0000
FC00
FC00
FC00
1C00
1C00
1C00
1C00
1C00
1C00
1E00
0F80
0F80
0380
ENDCHAR
STARTCHAR 006A
ENCODING 106
SWIDTH 571 0
DWIDTH 16 0
BBX 8 21 4 1
BITMAP
07
07
07
00
00
3F
3F
3F
07
07
07
07
07
07
07
07
07
0F
FE
FE
F8
ENDCHAR
STARTCHAR 006B
ENCODING 107
SWIDTH 571 0
DWIDTH 16 0
BBX 14 20 1 1
BITMAP
E000
E000
E000
E000
E01C
E01C
E03C
E0F0
E1E0
E1E0
E3C0
E300
EF00
FFC0
FDE0
F0F0
F0F0
E03C
E01C
E01C
ENDCHAR
STARTCHAR 006C
ENCODING 108
SWIDTH 571 0
DWIDTH 16 0
BBX 3 20 7 1
BITMAP
E0
E0
E0
E0
E0
E0
E0
E0
E0
E0
E0
E0
E0
E0
E0
E0
E0
E0
E0
E0
ENDCHAR
STARTCHAR 006D
ENCODING 109
SWIDTH 571 0
DWIDTH 16 0
BBX 14 16 1 1
BITMAP
EFE0
EFE0
FFF0
F77C
F77C
E71C
E71C
E71C
E71C
E71C
E71C
E71C
E71C
E71C
E71C
E71C
ENDCHAR
STARTCHAR 006E
ENCODING 110
SWIDTH 571 0
DWIDTH 16 0
BBX 14 16 1 1
BITMAP
EFE0
EFE0
FFF0
F03C
F03C
E01C
E01C
E01C
E01C
E01C
E01C
E01C
E01C
E01C
E01C
E01C
ENDCHAR
STARTCHAR 006F
ENCODING 111
SWIDTH 571 0
DWIDTH 16 0
BBX 14 16 1 1
BITMAP
1FE0
1FE0
7FF0
F03C
E01C
E01C
E01C
E01C
E01C
E01C
E01C
F03C
F03C
7FF0
7FF0
1FE0
ENDCHAR
STARTCHAR 0070
ENCODING 112
SWIDTH 571 0
DWIDTH 16 0
BBX 14 17 1 1
BITMAP
EFE0
FFF0
FFF0
FC3C
F01C
F01C
F01C
F01C
F01C
FC3C
FFF0
EFE0
EFE0
E000
E000
E000
E000
ENDCHAR
STARTCHAR 0071
ENCODING 113
SWIDTH 571 0
DWIDTH 16 0
BBX 14 17 1 1
BITMAP
1FDC
7FFC
7FFC
F0FC
E03C
E03C
E03C
E03C
F0FC
F0FC
7FFC
1F3C
1F3C
001C
001C
001C
001C
ENDCHAR
STARTCHAR 0072
ENCODING 114
SWIDTH 571 0
DWIDTH 16 0
BBX 14 16 1 1
BITMAP
E3E0
E3E0
EFF0
FE3C
FC1C
FC1C
F000
E000
E000
E000
E000
E000
E000
E000
E000
E000
ENDCHAR
STARTCHAR 0073
ENCODING 115
SWIDTH 571 0
DWIDTH 16 0
BBX 14 16 1 1
BITMAP
1FE0
1FE0
7FF0
F03C
F01C
F01C
7F00
0FE0
0FE0
01F0
E03C
F03C
F03C
7FF0
7FF0
1FE0
ENDCHAR
STARTCHAR 0074
ENCODING 116
SWIDTH 571 0
DWIDTH 16 0
BBX 8 20 4 1
BITMAP
1C
1C
1C
1C
FF
FF
FF
1C
1C
1C
1C
1C
1C
1C
1C
1C
1E
0F
0F
03
ENDCHAR
STARTCHAR 0075
ENCODING 117
SWIDTH 571 0
DWIDTH 16 0
BBX 14 16 1 1
BITMAP
E01C
E01C
E01C
E01C
E01C
E01C
E01C
E01C
E01C
E01C
E01C
F03C
F03C
7FF0
1FE0
1FE0
ENDCHAR
STARTCHAR 0076
ENCODING 118
SWIDTH 571 0
DWIDTH 16 0
BBX 14 16 1 1
BITMAP
E01C
E01C
E01C
E01C
E01C
E01C
E01C
E01C
E01C
F07C
78F0
18E0
1FE0
0F80
0700
0700
ENDCHAR
STARTCHAR 0077
ENCODING 119
SWIDTH 571 0
DWIDTH 16 0
BBX 14 16 1 1
BITMAP
E01C
E01C
E01C
E01C
E01C
E01C
E31C
E31C
E31C
E31C
E31C
F33C
F33C
7FF0
7FF0
1CE0
ENDCHAR
STARTCHAR 0078
ENCODING 120
SWIDTH 571 0
DWIDTH 16 0
BBX 14 16 1 1
BITMAP
E01C
E01C
F07C
78F0
18E0
1FE0
0F80
0700
0700
0F80
1FE0
78F0
78F0
F07C
E01C
E01C
ENDCHAR
STARTCHAR 0079
ENCODING 121
SWIDTH 571 0
DWIDTH 16 0
BBX 14 17 1 1
BITMAP
E01C
E01C
E01C
E03C
E03C
E03C
E0FC
F1FC
7F9C
7F9C
1F1C
001C
007C
007C
1FF0
1FF0
1FE0
ENDCHAR
STARTCHAR 007A
ENCODING 122
SWIDTH 571 0
DWIDTH 16 0
BBX 14 16 1 1
BITMAP
FFFC
FFFC
FFFC
003C
003C
00F0
01E0
01E0
0FC0
0F00
1E00
7800
7800
FFFC
FFFC
FFFC
ENDCHAR
STARTCHAR 007B
ENCODING 123
SWIDTH 571 0
DWIDTH 16 0
BBX 8 23 4 1
BITMAP
0F
0F
0F
1F
1C
1C
1C
1C
1C
1C
F0
F0
F0
1C
1C
1C
1C
1C
1C
1F
0F
0F
0F
ENDCHAR
STARTCHAR 007C
ENCODING 124
SWIDTH 571 0
DWIDTH 16 0
BBX 3 23 7 1
BITMAP
E0
E0
E0
E0
E0
E0
E0
E0
E0
E0
E0
E0
E0
E0
E0
E0
E0
E0
E0
E0
E0
E0
E0
ENDCHAR
STARTCHAR 007D
ENCODING 125
SWIDTH 571 0
DWIDTH 16 0
BBX 8 23 4 1
BITMAP
F0
F0
F0
FC
1C
1C
1C
1C
1C
1C
0F
0F
0F
1C
1C
1C
1C
1C
1C
FC
F0
F0
F0
ENDCHAR
STARTCHAR 007E
ENCODING 126
SWIDTH 571 0
DWIDTH 16 0
BBX 14 6 2 9
BITMAP
1E0C
1E0C
7F0C
E3F8
E3F8
81F0
ENDCHAR
STARTCHAR 00A0
ENCODING 160
SWIDTH 571 0
DWIDTH 16 0
BBX 0 0 0 0
BITMAP
ENDCHAR
STARTCHAR 00A1
ENCODING 161
SWIDTH 571 0
DWIDTH 16 0
BBX 3 20 8 1
BITMAP
E0
E0
E0
00
00
00
E0
E0
E0
E0
E0
E0
E0
E0
E0
E0
E0
E0
E0
E0
ENDCHAR
STARTCHAR 00A2
ENCODING 162
SWIDTH 571 0
DWIDTH 16 0
BBX 14 20 1 1
BITMAP
0700
0700
0700
1FE0
7FF0
7FF0
F77C
E71C
E71C
E700
E700
E71C
F77C
F77C
7FF0
1FE0
1FE0
0700
0700
0700
ENDCHAR
STARTCHAR 00A3
ENCODING 163
SWIDTH 571 0
DWIDTH 16 0
BBX 14 23 1 1
BITMAP
03E0
03E0
0FF0
1E3C
1C1C
1C1C
1C00
1C00
1C00
FFE0
FFE0
FFE0
1C00
1C00
1C00
1C00
1C00
1C00
7000
7000
FFFC
FFFC
FFFC
ENDCHAR
STARTCHAR 00A5
ENCODING 165
SWIDTH 571 0
DWIDTH 16 0
BBX 11 20 3 1
BITMAP
E0E0
E0E0
E0E0
E0E0
71C0
71C0
71C0
1F00
1F00
1F00
0E00
0E00
FFE0
0E00
0E00
0E00
FFE0
0E00
0E00
0E00
ENDCHAR
STARTCHAR 00A6
ENCODING 166
SWIDTH 571 0
DWIDTH 16 0
BBX 3 23 7 1
BITMAP
E0
E0
E0
E0
E0
E0
E0
E0
E0
E0
00
00
00
E0
E0
E0
E0
E0
E0
E0
E0
E0
E0
ENDCHAR
STARTCHAR 00A8
ENCODING 168
SWIDTH 571 0
DWIDTH 16 0
BBX 8 3 4 18
BITMAP
E7
E7
E7
ENDCHAR
STARTCHAR 00A9
ENCODING 169
SWIDTH 571 0
DWIDTH 16 0
BBX 13 15 2 5
BITMAP
1FE0
7070
7070
E798
8C08
8C08
8808
8808
8808
8808
8C08
E798
6010
7070
1FE0
ENDCHAR
STARTCHAR 00AA
ENCODING 170
SWIDTH 571 0
DWIDTH 16 0
BBX 9 15 3 6
BITMAP
7F00
4100
C180
0180
7F80
4180
C180
8180
8180
C180
7E80
0000
FF80
FF80
FF80
ENDCHAR
STARTCHAR 00AB
ENCODING 171
SWIDTH 571 0
DWIDTH 16 0
BBX 14 13 1 4
BITMAP
0204
0E1C
0E1C
1C30
70E0
70E0
E1C0
70E0
1C30
1C30
0E1C
0204
0204
ENDCHAR
STARTCHAR 00AD
ENCODING 173
SWIDTH 571 0
DWIDTH 16 0
BBX 11 3 3 10
BITMAP
FFE0
FFE0
FFE0
ENDCHAR
STARTCHAR 00AE
ENCODING 174
SWIDTH 571 0
DWIDTH 16 0
BBX 13 14 2 7
BITMAP
1FE0
7070
7070
EF18
8888
8888
8888
8F08
8808
8888
E898
7070
7070
1FE0
ENDCHAR
STARTCHAR 00B0
ENCODING 176
SWIDTH 571 0
DWIDTH 16 0
BBX 11 11 1 10
BITMAP
1F00
7F80
F1E0
F1E0
E0E0
E0E0
E0E0
F1E0
7F80
7F80
1F00
ENDCHAR
STARTCHAR 00B2
ENCODING 178
SWIDTH 571 0
DWIDTH 16 0
BBX 7 9 4 14
BITMAP
78
EE
0E
0E
78
E0
E0
E0
FE
ENDCHAR
STARTCHAR 00B3
ENCODING 179
SWIDTH 571 0
DWIDTH 16 0
BBX 7 9 4 14
BITMAP
78
EE
0E
0E
18
0E
EE
68
78
ENDCHAR
STARTCHAR 00B4
ENCODING 180
SWIDTH 571 0
DWIDTH 16 0
BBX 7 4 5 17
BITMAP
1E
78
78
E0
ENDCHAR
STARTCHAR 00B9
ENCODING 185
SWIDTH 571 0
DWIDTH 16 0
BBX 5 9 5 14
BITMAP
70
F0
70
70
70
70
70
70
F8
ENDCHAR
STARTCHAR 00BA
ENCODING 186
SWIDTH 571 0
DWIDTH 16 0
BBX 10 15 3 5
BITMAP
1E00
7F00
7F00
E1C0
E1C0
E1C0
E1C0
E1C0
7F00
1E00
1E00
0000
FFC0
FFC0
FFC0
ENDCHAR
STARTCHAR 00BB
ENCODING 187
SWIDTH 571 0
DWIDTH 16 0
BBX 14 13 2 4
BITMAP
8100
C180
C180
70E0
3870
3870
0E1C
3870
70E0
70E0
C180
8100
8100
ENDCHAR
STARTCHAR 00BC
ENCODING 188
SWIDTH 571 0
DWIDTH 16 0
BBX 13 23 2 1
BITMAP
7010
7010
F030
7020
7020
70E0
7080
7080
7180
F900
0700
0700
0E00
0830
0830
18F0
1090
7190
7190
41F8
C010
8010
8010
ENDCHAR
STARTCHAR 00BD
ENCODING 189
SWIDTH 571 0
DWIDTH 16 0
BBX 14 23 2 2
BITMAP
7010
7010
F030
7020
7020
70E0
7080
7080
7180
F900
0700
0700
0E00
08F0
0890
199C
101C
101C
70F0
4180
C180
C180
81FC
ENDCHAR
STARTCHAR 00BE
ENCODING 190
SWIDTH 571 0
DWIDTH 16 0
BBX 14 23 1 1
BITMAP
3804
2804
EE1C
0E10
0E10
1830
0E20
0E20
EEE0
3880
0180
0180
0300
0230
0230
0EF0
0890
1990
1990
11FC
3010
2010
2010
ENDCHAR
STARTCHAR 00BF
ENCODING 191
SWIDTH 571 0
DWIDTH 16 0
BBX 14 20 1 1
BITMAP
0700
0700
0700
0000
0000
0000
0700
0F00
0F00
1E00
7800
F000
F000
E000
E01C
F07C
F07C
7FF0
7FF0
1FE0
ENDCHAR
STARTCHAR 00C0
ENCODING 192
SWIDTH 571 0
DWIDTH 16 0
BBX 14 23 1 1
BITMAP
1E00
0F00
0F00
01C0
0000
0000
0700
0FC0
0FC0
1FE0
78F0
7030
F03C
E01C
E01C
E01C
FFFC
FFFC
FFFC
E01C
E01C
E01C
E01C
ENDCHAR
STARTCHAR 00C1
ENCODING 193
SWIDTH 571 0
DWIDTH 16 0
BBX 14 23 1 1
BITMAP
01E0
0780
0780
0E00
0000
0000
0700
0F80
0F80
1FE0
78F0
7070
F07C
E01C
E01C
E01C
FFFC
FFFC
FFFC
E01C
E01C
E01C
E01C
ENDCHAR
STARTCHAR 00C2
ENCODING 194
SWIDTH 571 0
DWIDTH 16 0
BBX 14 23 1 1
BITMAP
0700
0F80
0F80
18E0
0000
0000
0700
0F80
0F80
1FE0
78F0
7070
F07C
E01C
E01C
E01C
FFFC
FFFC
FFFC
E01C
E01C
E01C
E01C
ENDCHAR
STARTCHAR 00C3
ENCODING 195
SWIDTH 571 0
DWIDTH 16 0
BBX 14 23 1 1
BITMAP
0E20
1FE0
1FE0
11C0
0000
0000
0700
0FC0
0FC0
1FE0
78F0
7030
F03C
E01C
E01C
E01C
FFFC
FFFC
FFFC
E01C
E01C
E01C
E01C
ENDCHAR
STARTCHAR 00C4
ENCODING 196
SWIDTH 571 0
DWIDTH 16 0
BBX 14 23 1 1
BITMAP
18E0
18E0
18E0
0000
0000
0000
0700
0F80
0F80
1FE0
78F0
7070
F07C
E01C
E01C
E01C
FFFC
FFFC
FFFC
E01C
E01C
E01C
E01C
ENDCHAR
STARTCHAR 00C5
ENCODING 197
SWIDTH 571 0
DWIDTH 16 0
BBX 14 23 1 1
BITMAP
0700
0000
0880
0880
0880
0700
0700
0F80
0F80
1FE0
78F0
7070
F07C
E01C
E01C
E01C
FFFC
FFFC
FFFC
E01C
E01C
E01C
E01C
ENDCHAR
STARTCHAR 00C6
ENCODING 198
SWIDTH 571 0
DWIDTH 16 0
BBX 14 21 1 1
BITMAP
01FC
07FC
07FC
0FC0
1FC0
7DC0
7DC0
71C0
E1FC
E1FC
E1FC
E1C0
FFC0
FFC0
FFC0
E1C0
E1C0
E1C0
E1FC
E1FC
E1FC
ENDCHAR
STARTCHAR 00C7
ENCODING 199
SWIDTH 571 0
DWIDTH 16 0
BBX 14 20 1 1
BITMAP
1FE0
7FF0
7FF0
F03C
E01C
E01C
E000
E000
E000
E000
E01C
E01C
F03C
7FF0
1FE0
1FE0
03C0
0F00
0F00
1E00
ENDCHAR
STARTCHAR 00C8
ENCODING 200
SWIDTH 571 0
DWIDTH 16 0
BBX 14 23 1 1
BITMAP
1E00
0F00
0F00
01C0
0000
0000
FFFC
FFFC
FFFC
E000
E000
E000
E000
FFE0
FFE0
FFE0
E000
E000
E000
E000
FFFC
FFFC
FFFC
ENDCHAR
STARTCHAR 00C9
ENCODING 201
SWIDTH 571 0
DWIDTH 16 0
BBX 14 23 1 1
BITMAP
01E0
03C0
03C0
0E00
0000
0000
FFFC
FFFC
FFFC
E000
E000
E000
E000
FFE0
FFE0
FFE0
E000
E000
E000
E000
FFFC
FFFC
FFFC
ENDCHAR
STARTCHAR 00CA
ENCODING 202
SWIDTH 571 0
DWIDTH 16 0
BBX 14 23 1 1
BITMAP
0300
0F80
0F80
1CE0
0000
0000
FFFC
FFFC
FFFC
E000
E000
E000
E000
FFE0
FFE0
FFE0
E000
E000
E000
E000
FFFC
FFFC
FFFC
ENDCHAR
STARTCHAR 00CB
ENCODING 203
SWIDTH 571 0
DWIDTH 16 0
BBX 14 23 1 1
BITMAP
1CE0
1CE0
1CE0
0000
0000
0000
FFFC
FFFC
FFFC
E000
E000
E000
E000
FFE0
FFE0
FFE0
E000
E000
E000
E000
FFFC
FFFC
FFFC
ENDCHAR
STARTCHAR 00CC
ENCODING 204
SWIDTH 571 0
DWIDTH 16 0
BBX 8 23 4 1
BITMAP
F0
78
78
0E
00
00
FF
FF
FF
38
38
38
38
38
38
38
38
38
38
38
FF
FF
FF
ENDCHAR
STARTCHAR 00CD
ENCODING 205
SWIDTH 571 0
DWIDTH 16 0
BBX 8 23 4 1
BITMAP
0F
1E
1E
70
00
00
FF
FF
FF
1C
1C
1C
1C
1C
1C
1C
1C
1C
1C
1C
FF
FF
FF
ENDCHAR
STARTCHAR 00CE
ENCODING 206
SWIDTH 571 0
DWIDTH 16 0
BBX 8 23 4 1
BITMAP
1C
3E
3E
E3
00
00
FF
FF
FF
1C
1C
1C
1C
1C
1C
1C
1C
1C
1C
1C
FF
FF
FF
ENDCHAR
STARTCHAR 00CF
ENCODING 207
SWIDTH 571 0
DWIDTH 16 0
BBX 8 23 4 1
BITMAP
E3
E3
E3
00
00
00
FF
FF
FF
1C
1C
1C
1C
1C
1C
1C
1C
1C
1C
1C
FF
FF
FF
ENDCHAR
STARTCHAR 00D0
ENCODING 208
SWIDTH 571 0
DWIDTH 16 0
BBX 14 20 1 1
BITMAP
7FE0
7FE0
7FF0
703C
701C
701C
701C
701C
701C
FE1C
FE1C
FE1C
701C
701C
701C
701C
703C
7FF0
7FF0
7FE0
ENDCHAR
STARTCHAR 00D1
ENCODING 209
SWIDTH 571 0
DWIDTH 16 0
BBX 14 23 1 1
BITMAP
0E20
1FE0
1FE0
11C0
0000
0000
E01C
E01C
E01C
F01C
FC1C
FC1C
FE1C
EF1C
E31C
E3DC
E1FC
E0FC
E0FC
E03C
E01C
E01C
E01C
ENDCHAR
STARTCHAR 00D2
ENCODING 210
SWIDTH 571 0
DWIDTH 16 0
BBX 14 23 1 1
BITMAP
1E00
0F00
0F00
01C0
0000
0000
1FE0
7FF0
7FF0
F03C
E01C
E01C
E01C
E01C
E01C
E01C
E01C
E01C
F03C
F03C
7FF0
1FE0
1FE0
ENDCHAR
STARTCHAR 00D3
ENCODING 211
SWIDTH 571 0
DWIDTH 16 0
BBX 14 23 1 1
BITMAP
01E0
03C0
03C0
0E00
0000
0000
1FE0
7FF0
7FF0
F03C
E01C
E01C
E01C
E01C
E01C
E01C
E01C
E01C
F03C
F03C
7FF0
1FE0
1FE0
ENDCHAR
STARTCHAR 00D4
ENCODING 212
SWIDTH 571 0
DWIDTH 16 0
BBX 14 23 1 1
BITMAP
0300
0F80
0F80
1CE0
0000
0000
1FE0
7FF0
7FF0
F07C
E01C
E01C
E01C
E01C
E01C
E01C
E01C
E01C
F07C
F07C
7FF0
1FE0
1FE0
ENDCHAR
STARTCHAR 00D5
ENCODING 213
SWIDTH 571 0
DWIDTH 16 0
BBX 14 23 1 1
BITMAP
0E20
1FE0
1FE0
11C0
0000
0000
1FE0
7FF0
7FF0
F03C
E01C
E01C
E01C
E01C
E01C
E01C
E01C
E01C
F03C
F03C
7FF0
1FE0
1FE0
ENDCHAR
STARTCHAR 00D6
ENCODING 214
SWIDTH 571 0
DWIDTH 16 0
BBX 14 23 1 1
BITMAP
1CE0
1CE0
1CE0
0000
0000
0000
1FE0
7FF0
7FF0
F03C
E01C
E01C
E01C
E01C
E01C
E01C
E01C
E01C
F03C
F03C
7FF0
1FE0
1FE0
ENDCHAR
STARTCHAR 00D8
ENCODING 216
SWIDTH 571 0
DWIDTH 16 0
BBX 14 20 1 1
BITMAP
1FDC
1FDC
7FFC
F0F0
E0FC
E0FC
E1DC
E1DC
E1DC
E71C
E71C
EE1C
EE1C
EE1C
F81C
783C
783C
FFF0
EFE0
EFE0
ENDCHAR
STARTCHAR 00D9
ENCODING 217
SWIDTH 571 0
DWIDTH 16 0
BBX 14 23 1 1
BITMAP
1E00
0F00
0F00
01C0
0000
0000
E01C
E01C
E01C
E01C
E01C
E01C
E01C
E01C
E01C
E01C
E01C
E01C
F03C
F03C
7FF0
1FE0
1FE0
ENDCHAR
STARTCHAR 00DA
ENCODING 218
SWIDTH 571 0
DWIDTH 16 0
BBX 14 23 1 1
BITMAP
01E0
03C0
03C0
0E00
0000
0000
E01C
E01C
E01C
E01C
E01C
E01C
E01C
E01C
E01C
E01C
E01C
E01C
F03C
F03C
7FF0
1FE0
1FE0
ENDCHAR
STARTCHAR 00DB
ENCODING 219
SWIDTH 571 0
DWIDTH 16 0
BBX 14 23 1 1
BITMAP
0300
0F80
0F80
1CE0
0000
0000
E01C
E01C
E01C
E01C
E01C
E01C
E01C
E01C
E01C
E01C
E01C
E01C
F07C
F07C
7FF0
1FE0
1FE0
ENDCHAR
STARTCHAR 00DC
ENCODING 220
SWIDTH 571 0
DWIDTH 16 0
BBX 14 23 1 1
BITMAP
1CE0
1CE0
1CE0
0000
0000
0000
E01C
E01C
E01C
E01C
E01C
E01C
E01C
E01C
E01C
E01C
E01C
E01C
F03C
F03C
7FF0
1FE0
1FE0
ENDCHAR
STARTCHAR 00DD
ENCODING 221
SWIDTH 571 0
DWIDTH 16 0
BBX 14 23 1 1
BITMAP
01E0
0780
0780
0E00
0000
0000
E01C
E01C
E01C
E01C
F07C
F07C
78F0
1FE0
0F80
0F80
0700
0700
0700
0700
0700
0700
0700
ENDCHAR
STARTCHAR 00DE
ENCODING 222
SWIDTH 571 0
DWIDTH 16 0
BBX 14 21 1 1
BITMAP
E000
E000
E000
E000
FFE0
FFF0
FFF0
E03C
E01C
E01C
E01C
E01C
E01C
E03C
FFF0
FFE0
FFE0
E000
E000
E000
E000
ENDCHAR
STARTCHAR 00DF
ENCODING 223
SWIDTH 571 0
DWIDTH 16 0
BBX 12 23 1 1
BITMAP
1C00
1C00
7F00
F3C0
F3C0
E1C0
E1C0
E1C0
E1C0
E300
E300
E300
E300
E3C0
E1E0
E1E0
E0F0
E030
E030
E030
EFF0
EFF0
EFE0
ENDCHAR
STARTCHAR 00E0
ENCODING 224
SWIDTH 571 0
DWIDTH 16 0
BBX 14 20 1 1
BITMAP
1E00
0F00
0F00
01C0
0000
0000
1FE0
1FF0
1FF0
001C
1FDC
7FFC
7FFC
F03C
E01C
E01C
F03C
7FFC
7FFC
1FDC
ENDCHAR
STARTCHAR 00E1
ENCODING 225
SWIDTH 571 0
DWIDTH 16 0
BBX 14 20 1 1
BITMAP
01E0
03C0
03C0
0E00
0000
0000
1FE0
1FF0
1FF0
001C
1FDC
7FFC
7FFC
F03C
E01C
E01C
F03C
7FFC
7FFC
1FDC
ENDCHAR
STARTCHAR 00E2
ENCODING 226
SWIDTH 571 0
DWIDTH 16 0
BBX 14 20 1 1
BITMAP
0300
0F80
0F80
1CE0
0000
0000
1FE0
1FF0
1FF0
001C
1F9C
7FFC
7FFC
F07C
E01C
E01C
F07C
7FFC
7FFC
1F9C
ENDCHAR
STARTCHAR 00E3
ENCODING 227
SWIDTH 571 0
DWIDTH 16 0
BBX 13 20 1 1
BITMAP
0E60
1FE0
1FE0
11C0
0000
0000
1FE0
1FF0
1FF0
0018
1FD8
7FF8
7FF8
F078
E018
E018
F078
7FF8
7FF8
1FD8
ENDCHAR
STARTCHAR 00E4
ENCODING 228
SWIDTH 571 0
DWIDTH 16 0
BBX 14 20 1 1
BITMAP
1CE0
1CE0
1CE0
0000
0000
0000
1FE0
1FF0
1FF0
001C
1FDC
7FFC
7FFC
F03C
E01C
E01C
F03C
7FFC
7FFC
1FDC
ENDCHAR
STARTCHAR 00E5
ENCODING 229
SWIDTH 571 0
DWIDTH 16 0
BBX 14 20 1 1
BITMAP
0700
0000
0840
0840
0700
0000
1FE0
1FF0
1FF0
001C
1FDC
7FFC
7FFC
F03C
E01C
E01C
F03C
7FFC
7FFC
1FDC
ENDCHAR
STARTCHAR 00E6
ENCODING 230
SWIDTH 571 0
DWIDTH 16 0
BBX 14 16 1 1
BITMAP
F8F0
F8F0
FFFC
071C
071C
071C
3FFC
3FFC
FFFC
E700
E700
E700
E700
FFF0
FFF0
3EF0
ENDCHAR
STARTCHAR 00E7
ENCODING 231
SWIDTH 571 0
DWIDTH 16 0
BBX 14 18 1 1
BITMAP
1FE0
7FF0
F03C
E01C
E01C
E000
E000
E000
E01C
E01C
F03C
7FF0
1FE0
1FE0
03C0
0F00
0F00
1E00
ENDCHAR
STARTCHAR 00E8
ENCODING 232
SWIDTH 571 0
DWIDTH 16 0
BBX 14 20 1 1
BITMAP
1E00
0F00
0F00
01C0
0000
0000
1FE0
7FF0
7FF0
F03C
E01C
FFFC
FFFC
FFF0
E000
E000
F03C
7FF0
1FE0
1FE0
ENDCHAR
STARTCHAR 00E9
ENCODING 233
SWIDTH 571 0
DWIDTH 16 0
BBX 14 20 1 1
BITMAP
01E0
03C0
03C0
0E00
0000
0000
1FE0
7FF0
7FF0
F03C
E01C
FFFC
FFFC
FFF0
E000
E000
F03C
7FF0
1FE0
1FE0
ENDCHAR
STARTCHAR 00EA
ENCODING 234
SWIDTH 571 0
DWIDTH 16 0
BBX 14 20 1 1
BITMAP
0300
0F80
0F80
1CE0
0000
0000
1FE0
7FF0
7FF0
F07C
E01C
FFFC
FFFC
FFF0
E000
E000
F03C
7FF0
1FE0
1FE0
ENDCHAR
STARTCHAR 00EB
ENCODING 235
SWIDTH 571 0
DWIDTH 16 0
BBX 14 20 1 1
BITMAP
1CE0
1CE0
1CE0
0000
0000
0000
1FE0
7FF0
7FF0
F03C
E01C
FFFC
FFFC
FFF0
E000
E000
F03C
7FF0
1FE0
1FE0
ENDCHAR
STARTCHAR 00EC
ENCODING 236
SWIDTH 571 0
DWIDTH 16 0
BBX 10 20 3 1
BITMAP
F000
7800
7800
0E00
0000
0000
0000
7E00
7E00
7E00
0E00
0E00
0E00
0E00
0E00
0E00
0F00
07C0
07C0
01C0
ENDCHAR
STARTCHAR 00ED
ENCODING 237
SWIDTH 571 0
DWIDTH 16 0
BBX 9 20 4 1
BITMAP
0780
1E00
1E00
3800
0000
0000
0000
FC00
FC00
FC00
1C00
1C00
1C00
1C00
1C00
1C00
1E00
0780
0780
0380
ENDCHAR
STARTCHAR 00EE
ENCODING 238
SWIDTH 571 0
DWIDTH 16 0
BBX 10 20 3 1
BITMAP
1C00
3E00
3E00
E300
0000
0000
0000
3E00
3E00
3E00
0E00
0E00
0E00
0E00
0E00
0E00
0F00
03C0
03C0
01C0
ENDCHAR
STARTCHAR 00EF
ENCODING 239
SWIDTH 571 0
DWIDTH 16 0
BBX 10 20 3 1
BITMAP
E700
E700
E700
0000
0000
0000
0000
7E00
7E00
7E00
0E00
0E00
0E00
0E00
0E00
0E00
0F00
07C0
07C0
01C0
ENDCHAR
STARTCHAR 00F0
ENCODING 240
SWIDTH 571 0
DWIDTH 16 0
BBX 14 21 1 1
BITMAP
0030
0030
0030
0FFC
0FFC
0FFC
0030
1FF0
7FF0
F030
F030
E030
E030
E030
E030
E030
F0F0
F0F0
7FE0
1FC0
1FC0
ENDCHAR
STARTCHAR 00F1
ENCODING 241
SWIDTH 571 0
DWIDTH 16 0
BBX 13 20 1 1
BITMAP
0E60
1FE0
1FE0
11C0
0000
0000
EFE0
FFF0
FFF0
F078
E018
E018
E018
E018
E018
E018
E018
E018
E018
E018
ENDCHAR
STARTCHAR 00F2
ENCODING 242
SWIDTH 571 0
DWIDTH 16 0
BBX 14 20 1 1
BITMAP
1E00
0F00
0F00
01C0
0000
0000
1FE0
7FF0
F03C
F03C
E01C
E01C
E01C
E01C
E01C
F03C
F03C
7FF0
1FE0
1FE0
ENDCHAR
STARTCHAR 00F3
ENCODING 243
SWIDTH 571 0
DWIDTH 16 0
BBX 14 20 1 1
BITMAP
01E0
03C0
03C0
0E00
0000
0000
1FE0
7FF0
F03C
F03C
E01C
E01C
E01C
E01C
E01C
F03C
F03C
7FF0
1FE0
1FE0
ENDCHAR
STARTCHAR 00F4
ENCODING 244
SWIDTH 571 0
DWIDTH 16 0
BBX 14 20 1 1
BITMAP
0300
0F80
0F80
1CE0
0000
0000
1FE0
7FF0
F07C
F07C
E01C
E01C
E01C
E01C
E01C
F07C
F07C
7FF0
1FE0
1FE0
ENDCHAR
STARTCHAR 00F5
ENCODING 245
SWIDTH 571 0
DWIDTH 16 0
BBX 14 20 1 1
BITMAP
0E20
1FE0
1FE0
11C0
0000
0000
1FE0
7FF0
F03C
F03C
E01C
E01C
E01C
E01C
E01C
F03C
F03C
7FF0
1FE0
1FE0
ENDCHAR
STARTCHAR 00F6
ENCODING 246
SWIDTH 571 0
DWIDTH 16 0
BBX 14 20 1 1
BITMAP
1CE0
1CE0
1CE0
0000
0000
0000
1FE0
7FF0
F03C
F03C
E01C
E01C
E01C
E01C
E01C
F03C
F03C
7FF0
1FE0
1FE0
ENDCHAR
STARTCHAR 00F8
ENCODING 248
SWIDTH 571 0
DWIDTH 16 0
BBX 14 16 1 1
BITMAP
1FDC
1FDC
FFFC
F030
E0FC
E0FC
E1DC
E71C
E71C
EE1C
F81C
703C
703C
FFF0
EFE0
EFE0
ENDCHAR
STARTCHAR 00F9
ENCODING 249
SWIDTH 571 0
DWIDTH 16 0
BBX 14 20 1 1
BITMAP
1E00
0F00
0F00
01C0
0000
0000
E01C
E01C
E01C
E01C
E01C
E01C
E01C
E01C
E01C
F03C
F03C
7FF0
1FE0
1FE0
ENDCHAR
STARTCHAR 00FA
ENCODING 250
SWIDTH 571 0
DWIDTH 16 0
BBX 14 20 1 1
BITMAP
01E0
03C0
03C0
0E00
0000
0000
E01C
E01C
E01C
E01C
E01C
E01C
E01C
E01C
E01C
F03C
F03C
7FF0
1FE0
1FE0
ENDCHAR
STARTCHAR 00FB
ENCODING 251
SWIDTH 571 0
DWIDTH 16 0
BBX 14 20 1 1
BITMAP
0300
0F80
0F80
1CE0
0000
0000
E01C
E01C
E01C
E01C
E01C
E01C
E01C
E01C
E01C
F07C
F07C
7FF0
1FE0
1FE0
ENDCHAR
STARTCHAR 00FC
ENCODING 252
SWIDTH 571 0
DWIDTH 16 0
BBX 14 20 1 1
BITMAP
1CE0
1CE0
1CE0
0000
0000
0000
E01C
E01C
E01C
E01C
E01C
E01C
E01C
E01C
E01C
F03C
F03C
7FF0
1FE0
1FE0
ENDCHAR
STARTCHAR 00FD
ENCODING 253
SWIDTH 571 0
DWIDTH 16 0
BBX 14 20 1 1
BITMAP
01E0
0780
0780
0E00
0000
0000
E01C
E07C
E07C
E0FC
F1FC
7F9C
7F9C
1F1C
001C
007C
007C
1FF0
1FF0
1FE0
ENDCHAR
STARTCHAR 00FE
ENCODING 254
SWIDTH 571 0
DWIDTH 16 0
BBX 15 18 1 1
BITMAP
E000
E000
E3E0
E3E0
FFF8
FC3E
FC3E
E00E
E00E
E00E
E00E
FC3E
FFF8
FFF8
E3E0
E000
E000
E000
ENDCHAR
STARTCHAR 00FF
ENCODING 255
SWIDTH 571 0
DWIDTH 16 0
BBX 14 20 1 1
BITMAP
1CE0
1CE0
1CE0
0000
0000
0000
E01C
E07C
E07C
E0FC
F1FC
7F9C
7F9C
1F1C
001C
007C
007C
1FF0
1FF0
1FE0
ENDCHAR
STARTCHAR 037E
ENCODING 894
SWIDTH 571 0
DWIDTH 16 0
BBX 5 17 3 1
BITMAP
38
38
38
00
00
00
00
00
00
00
00
38
38
38
70
C0
C0
ENDCHAR
STARTCHAR 2018
ENCODING 8216
SWIDTH 571 0
DWIDTH 16 0
BBX 4 8 8 13
BITMAP
10
20
20
E0
F0
F0
F0
F0
ENDCHAR
STARTCHAR 2019
ENCODING 8217
SWIDTH 571 0
DWIDTH 16 0
BBX 4 8 4 13
BITMAP
F0
F0
F0
F0
70
70
40
80
ENDCHAR
STARTCHAR 201C
ENCODING 8220
SWIDTH 571 0
DWIDTH 16 0
BBX 11 8 2 13
BITMAP
1020
2040
2040
E1C0
F1E0
F1E0
F1E0
F1E0
ENDCHAR
STARTCHAR 201D
ENCODING 8221
SWIDTH 571 0
DWIDTH 16 0
BBX 11 8 3 13
BITMAP
F1E0
F1E0
F1E0
F1E0
70E0
70E0
4080
8100
ENDCHAR
STARTCHAR 2022
ENCODING 8226
SWIDTH 571 0
DWIDTH 16 0
BBX 8 7 4 9
BITMAP
3E
FF
FF
FF
FF
3E
3E
ENDCHAR
STARTCHAR 2026
ENCODING 8230
SWIDTH 571 0
DWIDTH 16 0
BBX 13 3 1 1
BITMAP
E718
E718
E718
ENDCHAR
STARTCHAR 2039
ENCODING 8249
SWIDTH 571 0
DWIDTH 16 0
BBX 7 13 3 1
BITMAP
02
02
0E
1C
1C
70
E0
70
70
1C
0E
0E
02
ENDCHAR
STARTCHAR 203A
ENCODING 8250
SWIDTH 571 0
DWIDTH 16 0
BBX 7 13 4 1
BITMAP
80
80
C0
70
70
38
0E
38
38
70
C0
C0
80
ENDCHAR
STARTCHAR 2044
ENCODING 8260
SWIDTH 571 0
DWIDTH 16 0
BBX 14 20 1 1
BITMAP
001C
001C
001C
001C
003C
003C
00F0
01E0
01C0
03C0
0F00
0E00
7E00
7800
F000
F000
E000
E000
E000
E000
ENDCHAR
STARTCHAR 20A3
ENCODING 8355
SWIDTH 571 0
DWIDTH 16 0
BBX 14 20 1 1
BITMAP
7FFC
7FFC
7FFC
7000
7000
7000
7000
7000
7000
7FE0
7FE0
7FE0
7000
7000
FE00
7000
7000
7000
7000
7000
ENDCHAR
STARTCHAR 20A4
ENCODING 8356
SWIDTH 571 0
DWIDTH 16 0
BBX 14 23 1 1
BITMAP
03E0
03E0
0FF0
1E3C
1C1C
1C1C
1C00
1C00
1C00
FFE0
FFE0
FFE0
1C00
FFE0
FFE0
FFE0
1C00
1C00
7000
7000
FFFC
FFFC
FFFC
ENDCHAR
STARTCHAR 20A7
ENCODING 8359
SWIDTH 571 0
DWIDTH 16 0
BBX 13 20 2 1
BITMAP
F000
B800
B800
8800
8800
8800
8800
8900
8900
8900
BFF8
B128
F128
8120
8138
8108
8108
8128
8128
8138
ENDCHAR
STARTCHAR 20AC
ENCODING 8364
SWIDTH 571 0
DWIDTH 16 0
BBX 14 23 1 1
BITMAP
03E0
03E0
0FF0
1E1C
1C00
7C00
7000
FF00
FF00
FF00
7000
7000
FF00
FF00
FF00
7000
7000
7C00
7C00
1E1C
0FF0
03E0
03E0
ENDCHAR
STARTCHAR 2122
ENCODING 8482
SWIDTH 571 0
DWIDTH 16 0
BBX 14 8 1 12
BITMAP
FF84
11DC
11DC
11A4
1184
1184
1184
1184
ENDCHAR
STARTCHAR 2190
ENCODING 8592
SWIDTH 571 0
DWIDTH 16 0
BBX 14 14 1 4
BITMAP
0380
0E00
0E00
1C00
1000
3000
FFFC
FFFC
FFFC
3000
1C00
1E00
0E00
0380
ENDCHAR
STARTCHAR 2191
ENCODING 8593
SWIDTH 571 0
DWIDTH 16 0
BBX 14 14 1 4
BITMAP
0380
0380
0380
07C0
07C0
07C0
1C60
1C60
3838
3838
3838
E01C
E01C
E01C
ENDCHAR
STARTCHAR 2192
ENCODING 8594
SWIDTH 571 0
DWIDTH 16 0
BBX 14 14 1 4
BITMAP
0380
01C0
01C0
0060
0020
0038
FFFC
FFFC
FFFC
0038
0060
01E0
01C0
0380
ENDCHAR
STARTCHAR 2193
ENCODING 8595
SWIDTH 571 0
DWIDTH 16 0
BBX 14 14 1 4
BITMAP
E01C
E01C
E01C
3838
3838
3838
1C60
1C60
1C60
07C0
07C0
0380
0380
0380
ENDCHAR
STARTCHAR 2194
ENCODING 8596
SWIDTH 571 0
DWIDTH 16 0
BBX 14 14 1 3
BITMAP
0180
0180
01C0
01E0
FFF8
FFF8
FFFC
FFFC
FFFC
FFF8
01E0
01C0
01C0
0180
ENDCHAR
STARTCHAR 2215
ENCODING 8725
SWIDTH 571 0
DWIDTH 16 0
BBX 14 20 1 1
BITMAP
001C
001C
001C
001C
003C
003C
00F0
01E0
01C0
03C0
0F00
0E00
7E00
7800
F000
F000
E000
E000
E000
E000
ENDCHAR
STARTCHAR 25B2
ENCODING 9650
SWIDTH 571 0
DWIDTH 16 0
BBX 14 16 1 3
BITMAP
0380
0380
0380
0FC0
0FC0
1FE0
1FE0
1FE0
3FF8
3FF8
3FF8
FFFC
FFFC
FFFC
FFFC
FFFC
ENDCHAR
STARTCHAR 25BA
ENCODING 9658
SWIDTH 571 0
DWIDTH 16 0
BBX 11 16 3 3
BITMAP
F000
F800
F800
FE00
FF00
FF80
FF80
FFE0
FFE0
FF80
FF80
FF00
FE00
FE00
F800
F000
ENDCHAR
STARTCHAR 25BC
ENCODING 9660
SWIDTH 571 0
DWIDTH 16 0
BBX 14 16 1 3
BITMAP
FFFC
FFFC
FFFC
FFFC
FFFC
3FF8
3FF8
3FF8
1FE0
1FE0
1FE0
0FC0
0FC0
0FC0
0380
0380
ENDCHAR
STARTCHAR 25C4
ENCODING 9668
SWIDTH 571 0
DWIDTH 16 0
BBX 11 16 3 3
BITMAP
01E0
03E0
03E0
0FE0
1FE0
7FE0
7FE0
FFE0
FFE0
7FE0
7FE0
1FE0
0FE0
0FE0
03E0
01E0
ENDCHAR
ENDFONT
